<svg xmlns="http://www.w3.org/2000/svg" xmlns:xlink="http://www.w3.org/1999/xlink" width="196" height="34" fill="none" xmlns:v="https://vecta.io/nano"><g fill="#101010"><path d="M13.932 7.956c3.264 0 5.664.66 7.2 1.98 1.56 1.32 2.34 3.048 2.34 5.184 0 .72-.096 1.524-.288 2.412-.456 1.968-1.308 3.696-2.556 5.184a12.87 12.87 0 0 1-4.608 3.42c-1.8.792-3.756 1.188-5.868 1.188-3.336 0-5.808-.66-7.416-1.98C1.152 24 .36 22.224.36 20.016c0-.744.096-1.572.288-2.484a11.51 11.51 0 0 1 2.592-4.968C4.536 11.1 6.108 9.972 7.956 9.18c1.872-.816 3.864-1.224 5.976-1.224zm-.108 3.204c-.504 0-1.044.456-1.62 1.368-.552.888-1.212 2.58-1.98 5.076s-1.152 4.248-1.152 5.256c0 .528.084.888.252 1.08.168.168.396.252.684.252.504.048 1.02-.384 1.548-1.296.552-.912 1.236-2.688 2.052-5.328.744-2.328 1.116-4.02 1.116-5.076 0-.504-.084-.852-.252-1.044-.144-.192-.36-.288-.648-.288zM44.99 22.032c-.048.096-.072.24-.072.432 0 .168.036.3.108.396a.49.49 0 0 0 .36.144c.288 0 .528-.12.72-.36.216-.264.36-.396.432-.396.12 0 .216.084.288.252.072.144.108.324.108.54.024.696-.204 1.38-.684 2.052-.48.648-1.188 1.188-2.124 1.62-.912.408-2.016.612-3.312.612-1.584 0-2.844-.36-3.78-1.08a3.68 3.68 0 0 1-1.44-2.952c0-.888.216-1.884.648-2.988l1.98-5.184c.12-.312.18-.564.18-.756 0-.312-.108-.552-.324-.72-.192-.192-.432-.288-.72-.288-.456 0-.924.216-1.404.648-.456.408-.828 1.08-1.116 2.016v-.072l-2.268 7.308c-.072.288-.108.54-.108.756 0 .312.06.564.18.756.12.168.288.336.504.504.168.168.288.312.36.432.072.096.084.228.036.396-.12.312-.36.54-.72.684S31.91 27 31.166 27h-8.208c-.624 0-1.08-.096-1.368-.288a.71.71 0 0 1-.288-.828c.096-.288.348-.54.756-.756.36-.192.66-.42.9-.684s.444-.684.612-1.26L29.042 5.22c.072-.216.108-.396.108-.54a.96.96 0 0 0-.216-.648c-.12-.168-.288-.336-.504-.504-.24-.192-.42-.36-.54-.504-.096-.144-.108-.336-.036-.576.144-.552.9-1.032 2.268-1.44a14.91 14.91 0 0 1 4.284-.612c1.392 0 2.412.264 3.06.792.672.528 1.008 1.248 1.008 2.16 0 .528-.084 1.044-.252 1.548l-1.944 6.336c.936-1.224 1.92-2.076 2.952-2.556 1.056-.48 2.196-.72 3.42-.72 1.464 0 2.64.444 3.528 1.332.912.888 1.368 2.04 1.368 3.456a6.9 6.9 0 0 1-.36 2.196l-2.196 7.092zm37.727 0c-.048.096-.072.24-.072.432 0 .168.036.3.108.396a.49.49 0 0 0 .36.144c.288 0 .528-.12.72-.36.216-.264.36-.396.432-.396.12 0 .216.084.288.252.072.144.108.324.108.54.024.696-.204 1.38-.684 2.052-.48.648-1.188 1.188-2.124 1.62-.912.408-2.016.612-3.312.612-1.584 0-2.844-.36-3.78-1.08a3.68 3.68 0 0 1-1.44-2.952c0-.888.216-1.884.648-2.988l1.98-5.184c.12-.312.18-.564.18-.756 0-.312-.108-.552-.324-.72-.192-.192-.432-.288-.72-.288-.408 0-.828.18-1.26.54s-.816.924-1.152 1.692l-1.98 6.444c-.048.096-.072.24-.072.432 0 .168.036.3.108.396a.49.49 0 0 0 .36.144c.288 0 .528-.12.72-.36.216-.264.36-.396.432-.396.12 0 .216.084.288.252.072.144.108.324.108.54.024.696-.204 1.38-.684 2.052-.48.648-1.188 1.188-2.124 1.62-.912.408-2.016.612-3.312.612-1.584 0-2.844-.36-3.78-1.08a3.68 3.68 0 0 1-1.44-2.952c0-.888.216-1.884.648-2.988l1.98-5.184c.12-.312.18-.564.18-.756 0-.312-.108-.552-.324-.72-.192-.192-.432-.288-.72-.288-.408 0-.828.18-1.26.54-.432.336-.792.888-1.08 1.656l-2.376 7.704a2.21 2.21 0 0 0-.144.756c0 .288.06.528.18.72.12.168.288.348.504.54.168.144.288.276.36.396s.084.264.036.432c-.096.312-.324.54-.684.684s-.924.216-1.692.216h-8.208c-.624 0-1.068-.096-1.332-.288-.288-.216-.396-.492-.324-.828.096-.288.348-.54.756-.756.36-.192.66-.42.9-.684s.444-.684.612-1.26l3.204-10.404c.048-.12.072-.288.072-.504 0-.264-.06-.468-.18-.612-.096-.144-.264-.324-.504-.54-.24-.192-.408-.36-.504-.504s-.108-.336-.036-.576c.144-.552.9-1.032 2.268-1.44a14.14 14.14 0 0 1 4.284-.648c1.176 0 2.1.324 2.772.972.696.648 1.032 1.536 1.008 2.664.984-1.368 2.016-2.316 3.096-2.844 1.104-.528 2.292-.792 3.564-.792 1.392 0 2.52.408 3.384 1.224.888.792 1.38 1.836 1.476 3.132 1.032-1.632 2.136-2.76 3.312-3.384a7.85 7.85 0 0 1 3.852-.972c1.464 0 2.64.444 3.528 1.332.912.888 1.368 2.04 1.368 3.456a6.9 6.9 0 0 1-.36 2.196l-2.196 7.092zm22.215-14.076c1.056 0 1.896.432 2.52 1.296.648.84.972 1.992.972 3.456 0 1.272-.228 2.64-.684 4.104-.888 2.952-2.316 5.736-4.284 8.352-1.944 2.616-4.189 4.716-6.733 6.3-2.52 1.584-5.04 2.376-7.56 2.376-1.248 0-2.328-.216-3.24-.648-.888-.432-1.56-1.008-2.016-1.728-.48-.72-.72-1.488-.72-2.304 0-.36.06-.756.18-1.188.216-.672.576-1.188 1.08-1.548s1.104-.54 1.8-.54c1.104 0 2.004.372 2.7 1.116.72.768 1.176 1.812 1.368 3.132 1.536-.072 2.952-.732 4.248-1.98-1.224-.216-2.136-.624-2.736-1.224-.576-.624-.972-1.584-1.188-2.88l-1.44-8.82c-.072-.456-.18-.768-.324-.936-.12-.192-.288-.288-.504-.288-.168 0-.372.084-.612.252-.216.168-.372.252-.468.252-.192 0-.288-.204-.288-.612a3.63 3.63 0 0 1 .18-1.08c.432-1.368 1.236-2.52 2.412-3.456 1.176-.96 2.544-1.44 4.104-1.44 1.536 0 2.664.456 3.384 1.368.744.912 1.224 2.316 1.44 4.212l1.08 7.92c.072.6.288.9.648.9.432 0 .936-.384 1.512-1.152.576-.792 1.14-1.908 1.692-3.348-.72-.648-1.272-1.392-1.656-2.232s-.576-1.74-.576-2.7c0-.744.096-1.416.288-2.016.288-.96.732-1.68 1.332-2.16a3.24 3.24 0 0 1 2.088-.756zm17.932-7.56c2.568 0 4.488.396 5.76 1.188 1.296.768 1.944 1.716 1.944 2.844 0 .912-.384 1.62-1.152 2.124-.744.48-1.728.72-2.952.72-1.128 0-2.004-.276-2.628-.828s-.936-1.236-.936-2.052c0-.504.156-1.032.468-1.584-.72 0-1.32.18-1.8.54-.48.336-.852.924-1.116 1.764a5.63 5.63 0 0 0-.216 1.476c0 .576.096 1.032.288 1.368.216.312.516.468.9.468h2.124c1.248 0 1.872.384 1.872 1.152a1.97 1.97 0 0 1-.072.432 1.89 1.89 0 0 1-.9 1.188c-.432.264-1.092.396-1.98.396h-1.08l-3.564 11.664c-.072.288-.108.54-.108.756 0 .312.06.564.18.756.12.168.288.336.504.504.168.168.288.312.36.432.072.096.084.228.036.396-.12.312-.36.54-.72.684s-.912.216-1.656.216h-8.208c-.624 0-1.08-.096-1.368-.288a.71.71 0 0 1-.288-.828c.096-.288.348-.54.756-.756.36-.192.66-.42.9-.684s.444-.684.612-1.26l2.808-9.216c.12-.36.18-.732.18-1.116 0-.48-.108-.852-.324-1.116-.192-.288-.492-.6-.9-.936l-.612-.54c-.12-.168-.18-.36-.18-.576-.024-.456.132-.78.468-.972.36-.192 1.032-.288 2.016-.288h.9a6.65 6.65 0 0 1-.252-1.8c0-.6.108-1.224.324-1.872.456-1.224 1.428-2.256 2.916-3.096 1.512-.84 3.744-1.26 6.696-1.26z"/><use xlink:href="#B"/><use xlink:href="#B" x="23.625"/><path d="M190.526 21.816c-.048.192-.072.324-.072.396 0 .168.048.3.144.396a.49.49 0 0 0 .36.144c.288 0 .528-.12.72-.36.216-.264.36-.396.432-.396.12 0 .216.084.288.252a1.45 1.45 0 0 1 .108.576c.024.648-.228 1.308-.756 1.98-.504.672-1.188 1.224-2.052 1.656a6.19 6.19 0 0 1-2.808.648c-1.2 0-2.244-.228-3.132-.684s-1.5-1.056-1.836-1.8c-.648.84-1.392 1.464-2.232 1.872a6.02 6.02 0 0 1-2.664.612 6.11 6.11 0 0 1-3.096-.828c-.936-.552-1.692-1.332-2.268-2.34-.552-1.032-.828-2.196-.828-3.492 0-2.184.408-4.236 1.224-6.156.84-1.944 2.004-3.504 3.492-4.68 1.488-1.2 3.18-1.8 5.076-1.8 1.032 0 1.908.12 2.628.36a6.29 6.29 0 0 1 2.016 1.08l1.224-4.032c.072-.216.108-.396.108-.54a.96.96 0 0 0-.216-.648c-.12-.168-.288-.336-.504-.504-.24-.192-.42-.36-.54-.504-.096-.144-.108-.336-.036-.576.144-.552.9-1.032 2.268-1.44a14.91 14.91 0 0 1 4.284-.612c1.392 0 2.412.264 3.06.792.672.528 1.008 1.248 1.008 2.16 0 .528-.084 1.044-.252 1.548l-5.148 16.92zM184.514 11.7c-.384-.336-.804-.504-1.26-.504-.696 0-1.38.516-2.052 1.548s-1.212 2.28-1.62 3.744-.6 2.784-.576 3.96c0 1.32.432 1.98 1.296 1.98.312 0 .576-.12.792-.36.216-.264.42-.684.612-1.26l2.808-9.108z"/></g><defs ><path id="B" d="M137.084 7.956c3.264 0 5.664.66 7.2 1.98 1.56 1.32 2.34 3.048 2.34 5.184 0 .72-.096 1.524-.288 2.412-.456 1.968-1.308 3.696-2.556 5.184a12.87 12.87 0 0 1-4.608 3.42c-1.8.792-3.756 1.188-5.868 1.188-3.336 0-5.808-.66-7.416-1.98-1.584-1.344-2.376-3.12-2.376-5.328 0-.744.096-1.572.288-2.484a11.51 11.51 0 0 1 2.592-4.968c1.296-1.464 2.868-2.592 4.716-3.384 1.872-.816 3.864-1.224 5.976-1.224zm-.108 3.204c-.504 0-1.044.456-1.62 1.368-.552.888-1.212 2.58-1.98 5.076s-1.152 4.248-1.152 5.256c0 .528.084.888.252 1.08.168.168.396.252.684.252.504.048 1.02-.384 1.548-1.296.552-.912 1.236-2.688 2.052-5.328.744-2.328 1.116-4.02 1.116-5.076 0-.504-.084-.852-.252-1.044-.144-.192-.36-.288-.648-.288z"/></defs></svg>